name D:\school\WTK\thesis\model\3dpredictsim\Results\MidTarsalJoint\Fal_s1_bCst_PF_Song2011_ls150_MT_nl_signed_lin_MTP_T5_ig24_300_10.mot
datacolumns 128
datarows 4
range 0.00000000 0.03412511
endheader
time	pelvis_tilt	pelvis_list	pelvis_rotation	pelvis_tx	pelvis_ty	pelvis_tz	hip_flexion_l	hip_adduction_l	hip_rotation_l	hip_flexion_r	hip_adduction_r	hip_rotation_r	knee_angle_l	knee_angle_r	ankle_angle_l	ankle_angle_r	subtalar_angle_l	subtalar_angle_r	mtj_angle_l	mtj_angle_r	mtp_angle_l	mtp_angle_r	lumbar_extension	lumbar_bending	lumbar_rotation	arm_flex_l	arm_add_l	arm_rot_l	arm_flex_r	arm_add_r	arm_rot_r	elbow_flex_l	elbow_flex_r	pro_sup_l	pro_sup_r	glut_med1_l/activation	glut_med2_l/activation	glut_med3_l/activation	glut_min1_l/activation	glut_min2_l/activation	glut_min3_l/activation	semimem_l/activation	semiten_l/activation	bifemlh_l/activation	bifemsh_l/activation	sar_l/activation	add_long_l/activation	add_brev_l/activation	add_mag1_l/activation	add_mag2_l/activation	add_mag3_l/activation	tfl_l/activation	pect_l/activation	grac_l/activation	glut_max1_l/activation	glut_max2_l/activation	glut_max3_l/activation	iliacus_l/activation	psoas_l/activation	quad_fem_l/activation	gem_l/activation	peri_l/activation	rect_fem_l/activation	vas_med_l/activation	vas_int_l/activation	vas_lat_l/activation	med_gas_l/activation	lat_gas_l/activation	soleus_l/activation	tib_post_l/activation	flex_dig_l/activation	flex_hal_l/activation	tib_ant_l/activation	per_brev_l/activation	per_long_l/activation	per_tert_l/activation	ext_dig_l/activation	ext_hal_l/activation	ercspn_l/activation	intobl_l/activation	extobl_l/activation	glut_med1_r/activation	glut_med2_r/activation	glut_med3_r/activation	glut_min1_r/activation	glut_min2_r/activation	glut_min3_r/activation	semimem_r/activation	semiten_r/activation	bifemlh_r/activation	bifemsh_r/activation	sar_r/activation	add_long_r/activation	add_brev_r/activation	add_mag1_r/activation	add_mag2_r/activation	add_mag3_r/activation	tfl_r/activation	pect_r/activation	grac_r/activation	glut_max1_r/activation	glut_max2_r/activation	glut_max3_r/activation	iliacus_r/activation	psoas_r/activation	quad_fem_r/activation	gem_r/activation	peri_r/activation	rect_fem_r/activation	vas_med_r/activation	vas_int_r/activation	vas_lat_r/activation	med_gas_r/activation	lat_gas_r/activation	soleus_r/activation	tib_post_r/activation	flex_dig_r/activation	flex_hal_r/activation	tib_ant_r/activation	per_brev_r/activation	per_long_r/activation	per_tert_r/activation	ext_dig_r/activation	ext_hal_r/activation	ercspn_r/activation	intobl_r/activation	extobl_r/activation	
          0.00000000	         -2.92998659	         -2.05573364	          5.35355139	          0.00000000	          0.91944754	         -0.00256117	        -16.46957682	         -0.77579628	          6.63602136	         29.57770001	          3.14339850	         -3.05314403	         -8.26843932	        -11.71594386	         -5.18617911	          5.18675661	          7.48496279	         -3.08806096	          7.11005707	          0.53594355	         21.07543642	          0.42650251	         -1.99266821	          0.23180778	         -1.88534760	          5.07740763	        -13.45291570	         16.16181401	         -5.01594407	        -13.45482894	          6.76669926	         34.35330188	         16.65275028	         86.51662706	         86.51662706	          0.30430015	          0.10012917	          0.07075526	          0.28590379	          0.20107386	          0.10725794	          0.05000486	          0.05000101	          0.05000072	          0.05797476	          0.10330651	          0.05000047	          0.05000052	          0.05000073	          0.05000205	          0.05000166	          0.30845545	          0.05000197	          0.05000129	          0.05004133	          0.05001527	          0.05000412	          0.41359906	          0.61313446	          0.05000061	          0.05000243	          0.05000184	          0.26270514	          0.05000950	          0.05000427	          0.05000389	          0.27914978	          0.39158674	          0.34186821	          0.30364923	          0.28808666	          0.37472290	          0.05000032	          0.05214533	          0.09456767	          0.05000142	          0.05000048	          0.05000165	          0.05000008	          0.05000010	          0.05000029	          0.06145367	          0.05000259	          0.05947973	          0.05000062	          0.05000085	          0.05000644	          0.09539611	          0.05948212	          0.21122874	          0.05000261	          0.05000204	          0.09607328	          0.17332843	          0.20884216	          0.16364336	          0.10072251	          0.05947951	          0.05001666	          0.13269724	          0.05948605	          0.06818649	          0.10180784	          0.05000038	          0.05000051	          0.19405490	          0.05001822	          0.05000296	          0.05000048	          0.06481946	          0.06493658	          0.05315175	          0.05947928	          0.05947934	          0.05947921	          0.05000274	          0.05000436	          0.05000949	          0.46676519	          0.27725665	          0.17277212	          0.08073246	          0.45198979	          0.05000088	          0.05861885	          0.13406745	          0.11413521	
          0.01137504	         -2.92901014	         -2.14885509	          5.65209529	          0.01712134	          0.91849013	         -0.00236566	        -16.40220101	         -1.10385470	          6.43518310	         28.99168645	          3.52654677	         -2.88078678	        -10.04795273	        -11.75158342	         -5.70886102	          4.50065603	          8.55692603	         -3.51647492	          6.17946881	          0.48919460	         22.92496348	          0.44160017	         -1.79592079	          0.43469388	         -1.95936156	          4.82719622	        -13.46391874	         16.55248763	         -5.93753187	        -13.45108657	          6.49846179	         35.50414343	         16.31112160	         86.51662706	         86.51662706	          0.25580436	          0.08417174	          0.05947970	          0.24033991	          0.16902910	          0.09016453	          0.05002042	          0.05000381	          0.05000543	          0.05000225	          0.08684350	          0.10519340	          0.07973859	          0.05474965	          0.05008780	          0.05011414	          0.25929769	          0.07989961	          0.05018006	          0.05001726	          0.05001141	          0.05001381	          0.34768416	          0.52297595	          0.05000710	          0.05749124	          0.05947946	          0.22083826	          0.05000836	          0.15476637	          0.14449511	          0.23466176	          0.32917986	          0.30246211	          0.26146592	          0.24217736	          0.31500807	          0.05000017	          0.05000340	          0.08546050	          0.05000076	          0.05000020	          0.05000095	          0.05000028	          0.07449979	          0.06412441	          0.05169063	          0.05000195	          0.05000103	          0.05947922	          0.05004104	          0.05000194	          0.08019296	          0.05000277	          0.17756578	          0.05000240	          0.05001603	          0.11910498	          0.22614317	          0.25426715	          0.16931399	          0.09288547	          0.05000130	          0.07081488	          0.11155419	          0.05000647	          0.05732000	          0.10795625	          0.07075329	          0.07074764	          0.54163744	          0.16869340	          0.15513653	          0.08415620	          0.19622707	          0.19539175	          0.16503887	          0.05000018	          0.05000035	          0.05000006	          0.05000296	          0.05001027	          0.05001092	          0.53627134	          0.23307280	          0.18053031	          0.21643933	          0.48177654	          0.05948378	          0.05000015	          0.11270117	          0.09594556	
          0.02275008	         -2.92429419	         -2.24406335	          5.92139562	          0.03460425	          0.91755413	         -0.00218588	        -16.28906192	         -1.43612111	          6.22279966	         28.26487285	          3.83165242	         -2.64501206	        -11.89088500	        -12.17221839	         -6.36376985	          3.85856242	          9.60316407	         -3.96220107	          5.06646632	          0.27326709	         24.86713548	          0.41666245	         -1.57451976	          0.64887983	         -2.02337713	          4.48895021	        -13.47553249	         16.86938788	         -6.89814715	        -13.45335161	          6.27950024	         36.64164115	         16.02714363	         86.51662706	         86.51662706	          0.31362340	          0.07075743	          0.05000176	          0.20203788	          0.14209135	          0.07579524	          0.05002090	          0.05000585	          0.05000354	          0.05000091	          0.07300433	          0.12420404	          0.08841279	          0.05948563	          0.05948263	          0.05948152	          0.21797682	          0.06834903	          0.05016115	          0.05009615	          0.05032540	          0.05947764	          0.29227754	          0.51738535	          0.05565683	          0.05000663	          0.05000087	          0.18564350	          0.10029591	          0.13010423	          0.12146929	          0.19726375	          0.27671856	          0.25425876	          0.21979636	          0.20358220	          0.26480583	          0.05000041	          0.05000089	          0.11866227	          0.05000106	          0.05000156	          0.05000133	          0.05000044	          0.06262679	          0.05947995	          0.25482072	          0.05000084	          0.17422824	          0.05000094	          0.05000072	          0.22767679	          0.09261108	          0.09222122	          0.15819457	          0.05000059	          0.05000250	          0.10012359	          0.19010331	          0.21374552	          0.14233190	          0.10283550	          0.05000465	          0.05953492	          0.09384545	          0.05000284	          0.05000387	          0.09075188	          0.05947876	          0.05947576	          0.45531686	          0.14180908	          0.13041771	          0.07074428	          0.16495457	          0.16425237	          0.13873679	          0.05494573	          0.05680483	          0.05520984	          0.05000175	          0.05000320	          0.05000321	          0.45964319	          0.27286628	          0.15175991	          0.18194567	          0.55706856	          0.05000392	          0.05000008	          0.12169074	          0.08065476	
          0.03412511	         -2.91749020	         -2.34041501	          6.15558144	          0.05227488	          0.91665919	         -0.00200136	        -16.10245215	         -1.76747617	          6.00718998	         27.41178716	          4.08255090	         -2.39756315	        -13.82617713	        -12.54939417	         -7.15617715	          3.21290567	         10.60775282	         -4.42165456	          3.80536846	          0.28757570	         26.82235718	          0.37676555	         -1.34627863	          0.87295282	         -2.07840399	          4.08820752	        -13.49078054	         17.12312172	         -7.85725420	        -13.46079666	          6.12098221	         37.75554893	         15.77886425	         86.51662706	         86.51662706	          0.29993972	          0.05948099	          0.05000046	          0.33337725	          0.11944684	          0.06371607	          0.05000814	          0.05000075	          0.05000065	          0.05000188	          0.07078179	          0.10766278	          0.07432308	          0.05000639	          0.05000606	          0.05000361	          0.21200085	          0.07004437	          0.05000263	          0.05000560	          0.05000309	          0.05000234	          0.24570050	          0.48491931	          0.05000044	          0.05000274	          0.05000177	          0.16342162	          0.08431338	          0.10937361	          0.14167846	          0.16582585	          0.23261799	          0.21373756	          0.18476757	          0.17113775	          0.22260410	          0.07864381	          0.12574954	          0.12295587	          0.05000139	          0.11564093	          0.05000368	          0.06657115	          0.05264598	          0.05000073	          0.32198352	          0.27446380	          0.32269015	          0.15059960	          0.23110198	          0.19140987	          0.07785180	          0.07752518	          0.13298324	          0.08356039	          0.05002106	          0.08416707	          0.15980673	          0.17968179	          0.11965003	          0.13149696	          0.05000237	          0.05004861	          0.07889967	          0.19607265	          0.14785703	          0.10789963	          0.05000050	          0.05000049	          0.38275331	          0.11920978	          0.14525326	          0.05946996	          0.13866840	          0.13939513	          0.11662835	          0.05000071	          0.05000108	          0.05000013	          0.05000010	          0.05000052	          0.05000065	          0.57285553	          0.31555622	          0.16561078	          0.53475476	          0.54041520	          0.22533689	          0.07089446	          0.10229715	          0.06780086	
